<svg width="26" height="26" viewBox="0 0 26 26" fill="none" xmlns="http://www.w3.org/2000/svg">
<g clip-path="url(#clip0_27_3163)">
<path d="M22.0603 10.9166C22.0603 18.2083 12.6853 24.4583 12.6853 24.4583C12.6853 24.4583 3.3103 18.2083 3.3103 10.9166C3.3103 8.43022 4.29802 6.04565 6.05618 4.2875C7.81433 2.52935 10.1989 1.54163 12.6853 1.54163C15.1717 1.54163 17.5563 2.52935 19.3144 4.2875C21.0726 6.04565 22.0603 8.43022 22.0603 10.9166Z" stroke="#1A1A1A" stroke-width="1.5" stroke-linecap="round" stroke-linejoin="round"/>
<path d="M12.6853 14.0416C14.4112 14.0416 15.8103 12.6425 15.8103 10.9166C15.8103 9.19074 14.4112 7.79163 12.6853 7.79163C10.9594 7.79163 9.5603 9.19074 9.5603 10.9166C9.5603 12.6425 10.9594 14.0416 12.6853 14.0416Z" stroke="#1A1A1A" stroke-width="1.5" stroke-linecap="round" stroke-linejoin="round"/>
</g>
<defs>
<clipPath id="clip0_27_3163">
<rect width="25" height="25" fill="white" transform="translate(0.185303 0.5)"/>
</clipPath>
</defs>
</svg>
