<svg width="26" height="26" viewBox="0 0 26 26" fill="none" xmlns="http://www.w3.org/2000/svg">
<path d="M22.0603 12.6079C22.0639 13.9827 21.7427 15.339 21.1228 16.5662C20.3878 18.0368 19.258 19.2737 17.8597 20.1384C16.4615 21.0031 14.8501 21.4614 13.2061 21.462C11.8313 21.4656 10.475 21.1444 9.2478 20.5245L3.3103 22.5037L5.28947 16.5662C4.66961 15.339 4.34838 13.9827 4.35197 12.6079C4.35261 10.9639 4.81094 9.3525 5.67564 7.95427C6.54033 6.55603 7.77723 5.42616 9.2478 4.69119C10.475 4.07133 11.8313 3.75011 13.2061 3.75369H13.727C15.8982 3.87347 17.9489 4.7899 19.4865 6.3275C21.0241 7.86511 21.9405 9.91583 22.0603 12.087V12.6079Z" stroke="#1A1A1A" stroke-width="1.5" stroke-linecap="round" stroke-linejoin="round"/>
</svg>
