<svg width="25" height="26" viewBox="0 0 25 26" fill="none" xmlns="http://www.w3.org/2000/svg">
<mask id="mask0_27_3176" style="mask-type:alpha" maskUnits="userSpaceOnUse" x="0" y="0" width="25" height="26">
<rect y="0.9729" width="25" height="25" fill="#D9D9D9"/>
</mask>
<g mask="url(#mask0_27_3176)">
<path d="M15.9374 18.3688L17.3958 16.9104L13.5416 13.0563V8.26461H11.4583V13.8896L15.9374 18.3688ZM12.4999 23.8896C11.0589 23.8896 9.70478 23.6162 8.43742 23.0693C7.17006 22.5224 6.06763 21.7802 5.13013 20.8427C4.19263 19.9052 3.45044 18.8028 2.90356 17.5354C2.35669 16.2681 2.08325 14.9139 2.08325 13.4729C2.08325 12.032 2.35669 10.6778 2.90356 9.41044C3.45044 8.14308 4.19263 7.04065 5.13013 6.10315C6.06763 5.16565 7.17006 4.42346 8.43742 3.87659C9.70478 3.32971 11.0589 3.05627 12.4999 3.05627C13.9409 3.05627 15.2951 3.32971 16.5624 3.87659C17.8298 4.42346 18.9322 5.16565 19.8697 6.10315C20.8072 7.04065 21.5494 8.14308 22.0963 9.41044C22.6431 10.6778 22.9166 12.032 22.9166 13.4729C22.9166 14.9139 22.6431 16.2681 22.0963 17.5354C21.5494 18.8028 20.8072 19.9052 19.8697 20.8427C18.9322 21.7802 17.8298 22.5224 16.5624 23.0693C15.2951 23.6162 13.9409 23.8896 12.4999 23.8896ZM12.4999 21.8063C14.8089 21.8063 16.7751 20.9946 18.3984 19.3714C20.0216 17.7481 20.8333 15.782 20.8333 13.4729C20.8333 11.1639 20.0216 9.19777 18.3984 7.5745C16.7751 5.95124 14.8089 5.13961 12.4999 5.13961C10.1909 5.13961 8.22475 5.95124 6.60148 7.5745C4.97822 9.19777 4.16659 11.1639 4.16659 13.4729C4.16659 15.782 4.97822 17.7481 6.60148 19.3714C8.22475 20.9946 10.1909 21.8063 12.4999 21.8063Z" fill="#1C1B1F"/>
</g>
</svg>
