<svg width="171" height="64" viewBox="0 0 171 64" fill="none" xmlns="http://www.w3.org/2000/svg">
<path d="M12.1151 11.4402C14.1851 11.4402 16.0301 11.8002 17.6501 12.5202L16.4801 18.1002L15.9401 18.3252C15.1301 17.9352 14.4251 17.6502 13.8251 17.4702C13.2551 17.2902 12.6851 17.2002 12.1151 17.2002C10.9151 17.2002 10.0001 17.6052 9.3701 18.4152C8.7701 19.2252 8.4701 20.4252 8.4701 22.0152C8.4701 25.9152 9.8351 27.8652 12.5651 27.8652C13.6451 27.8652 15.0401 27.5502 16.7501 26.9202L17.2901 27.3252L16.5701 32.6802C14.7701 33.1902 12.9101 33.4452 10.9901 33.4452C8.0501 33.4452 5.7551 32.5152 4.1051 30.6552C2.4851 28.7652 1.6751 26.1252 1.6751 22.7352C1.6751 19.1952 2.5901 16.4352 4.4201 14.4552C6.2501 12.4452 8.8151 11.4402 12.1151 11.4402Z" fill="#1A5183"/>
<path d="M28.4811 11.4402C30.9711 11.4402 32.9062 11.9802 34.2862 13.0602C35.6662 14.1102 36.3562 15.6252 36.3562 17.6052C36.3562 18.2952 36.3262 19.0902 36.2662 19.9902C36.2062 20.8902 36.1611 21.7452 36.1311 22.5552C35.9811 24.7152 35.9062 26.2002 35.9062 27.0102C35.9062 27.4302 35.9662 27.7302 36.0862 27.9102C36.2362 28.0902 36.4762 28.1802 36.8062 28.1802C37.0762 28.1802 37.4062 28.1202 37.7962 28.0002L38.2912 28.4052L37.6612 32.1402C36.6712 32.8302 35.4562 33.2352 34.0162 33.3552C33.1162 33.2652 32.3512 32.9502 31.7212 32.4102C31.0912 31.8702 30.6412 31.1052 30.3712 30.1152H30.0562C28.5562 31.7052 27.0262 32.8002 25.4662 33.4002C23.2462 33.3702 21.4912 32.7702 20.2012 31.6002C18.9412 30.4302 18.3111 28.8402 18.3111 26.8302C18.3111 23.7402 19.9312 21.9252 23.1712 21.3852L29.8312 20.2602V18.9552C29.8312 18.0252 29.6212 17.3652 29.2012 16.9752C28.8112 16.5552 28.1661 16.3452 27.2661 16.3452C26.3661 16.3452 25.3912 16.5402 24.3412 16.9302C23.3212 17.3202 22.1362 17.9352 20.7861 18.7752L20.3362 18.4602L19.5261 13.8252C20.8761 13.0752 22.3311 12.4902 23.8911 12.0702C25.4511 11.6502 26.9811 11.4402 28.4811 11.4402ZM25.9612 24.3552C25.5112 24.4452 25.1661 24.6252 24.9261 24.8952C24.7161 25.1652 24.6112 25.5702 24.6112 26.1102C24.6112 26.8302 24.7912 27.3852 25.1512 27.7752C25.5412 28.1652 26.0662 28.3602 26.7262 28.3602C27.6862 28.3602 28.7062 27.8502 29.7861 26.8302L29.8312 23.5902L25.9612 24.3552Z" fill="#1A5183"/>
<path d="M59.8417 23.6352L59.9317 26.9652C59.9317 27.4152 59.9917 27.7302 60.1117 27.9102C60.2317 28.0902 60.4417 28.1802 60.7417 28.1802C61.0117 28.1802 61.3417 28.1202 61.7317 28.0002L62.2267 28.4052L61.5967 32.1402C60.6067 32.8302 59.3917 33.2352 57.9517 33.3552C56.9917 33.2652 56.1667 32.9502 55.4767 32.4102C54.8167 31.8702 54.3367 31.1352 54.0367 30.2052H53.6767C52.4467 31.4352 50.9917 32.4702 49.3117 33.3102C46.4017 33.3102 44.1367 32.3652 42.5167 30.4752C40.8967 28.5852 40.0867 25.9752 40.0867 22.6452C40.0867 19.0452 41.0317 16.3002 42.9217 14.4102C44.8417 12.4902 47.4817 11.5302 50.8417 11.5302C51.7117 11.5302 52.5067 11.6052 53.2267 11.7552L53.1367 1.85517L60.2017 1.36018L59.8417 23.6352ZM50.5267 16.3002C49.2667 16.3002 48.3217 16.6902 47.6917 17.4702C47.0617 18.2202 46.7467 19.4802 46.7467 21.2502C46.7467 23.5302 47.0467 25.2102 47.6467 26.2902C48.2467 27.3702 49.1467 27.9102 50.3467 27.9102C51.3967 27.9102 52.4017 27.4152 53.3617 26.4252L53.4067 24.3102L53.3167 16.9752C52.3267 16.5252 51.3967 16.3002 50.5267 16.3002Z" fill="#1A5183"/>
<path d="M82.024 23.5902L70.234 23.6802C70.444 25.2402 70.984 26.3952 71.854 27.1452C72.724 27.8952 73.954 28.2702 75.544 28.2702C77.134 28.2702 79.234 27.8052 81.844 26.8752L82.384 27.2352L81.304 32.3202C78.904 33.0702 76.729 33.4452 74.779 33.4452C71.329 33.4452 68.614 32.4702 66.634 30.5202C64.684 28.5702 63.709 25.8852 63.709 22.4652C63.709 19.0452 64.654 16.3602 66.544 14.4102C68.434 12.4302 70.999 11.4402 74.239 11.4402C77.029 11.4402 79.189 12.1902 80.719 13.6902C82.279 15.1902 83.059 17.2752 83.059 19.9452C83.059 20.8152 82.969 21.7302 82.789 22.6902L82.024 23.5902ZM76.894 19.1802C76.894 17.1102 75.994 16.0752 74.194 16.0752C73.174 16.0752 72.334 16.4202 71.674 17.1102C71.014 17.7702 70.564 18.7302 70.324 19.9902L76.804 19.8102L76.894 19.1802ZM66.409 6.58017C68.269 4.93017 70.519 2.75517 73.159 0.0551758H74.554C76.564 2.15518 78.814 4.33018 81.304 6.58017L79.549 9.23518H78.874C76.564 7.58518 74.899 6.29517 73.879 5.36517C72.919 6.17517 71.254 7.46518 68.884 9.23518H68.164L66.409 6.58017Z" fill="#1A5183"/>
<path d="M117.683 20.3502C117.743 18.2802 116.903 17.2452 115.163 17.2452C114.113 17.2452 112.988 17.6802 111.788 18.5502L111.653 23.6352L111.968 32.9502H104.903L105.263 20.3502C105.323 18.2802 104.468 17.2452 102.698 17.2452C101.678 17.2452 100.538 17.7102 99.2782 18.6402V23.6352L99.5932 32.9502H92.5282L92.8432 24.3552L92.5732 12.3402L99.2782 11.8002V14.9052H99.5932C101.243 13.3452 103.028 12.2502 104.948 11.6202C106.628 11.6202 108.008 11.9202 109.088 12.5202C110.198 13.0902 110.963 13.9152 111.383 14.9952H111.653C113.303 13.4352 115.223 12.3102 117.413 11.6202C119.663 11.6202 121.373 12.1452 122.543 13.1952C123.743 14.2152 124.313 15.6852 124.253 17.6052L124.118 23.6352L124.388 32.9502H117.323L117.683 20.3502Z" fill="#1A5183"/>
<path d="M145.684 23.5902L133.894 23.6802C134.104 25.2402 134.644 26.3952 135.514 27.1452C136.384 27.8952 137.614 28.2702 139.204 28.2702C140.794 28.2702 142.894 27.8052 145.504 26.8752L146.044 27.2352L144.964 32.3202C142.564 33.0702 140.389 33.4452 138.439 33.4452C134.989 33.4452 132.274 32.4702 130.294 30.5202C128.344 28.5702 127.369 25.8852 127.369 22.4652C127.369 19.0452 128.314 16.3602 130.204 14.4102C132.094 12.4302 134.659 11.4402 137.899 11.4402C140.689 11.4402 142.849 12.1902 144.379 13.6902C145.939 15.1902 146.719 17.2752 146.719 19.9452C146.719 20.8152 146.629 21.7302 146.449 22.6902L145.684 23.5902ZM140.554 19.1802C140.554 17.1102 139.654 16.0752 137.854 16.0752C136.834 16.0752 135.994 16.4202 135.334 17.1102C134.674 17.7702 134.224 18.7302 133.984 19.9902L140.464 19.8102L140.554 19.1802Z" fill="#1A5183"/>
<path d="M170.624 28.4052L169.994 32.1402C168.734 32.9502 167.444 33.3552 166.124 33.3552C164.384 32.9952 163.184 31.8102 162.524 29.8002H162.074C160.334 31.5402 158.579 32.6802 156.809 33.2202C154.559 33.2202 152.834 32.7102 151.634 31.6902C150.434 30.6402 149.834 29.1552 149.834 27.2352L149.969 22.1952L149.744 12.3402L156.584 11.8002L156.494 24.6252C156.464 26.5752 157.244 27.5502 158.834 27.5502C159.374 27.5502 159.884 27.4452 160.364 27.2352C160.844 27.0252 161.369 26.6802 161.939 26.2002V12.3402L168.689 11.8002L168.284 27.0102C168.284 27.4302 168.344 27.7302 168.464 27.9102C168.614 28.0902 168.839 28.1802 169.139 28.1802C169.409 28.1802 169.739 28.1202 170.129 28.0002L170.624 28.4052Z" fill="#1A5183"/>
<path d="M12.4301 57.7302C13.3301 57.7302 14.2901 57.5052 15.3101 57.0552L15.8051 57.5952L15.1301 61.6902C13.6301 62.5302 12.0701 63.0552 10.4501 63.2652C8.2601 63.1452 6.5951 62.5752 5.4551 61.5552C4.3151 60.5052 3.7451 59.0802 3.7451 57.2802L3.9701 53.1852L3.9251 46.3002H1.1351L0.910095 45.9402L1.2251 42.0702H3.8801V38.4702L10.4051 36.5352L10.9001 36.9852L10.7201 42.0702H15.6701L15.8951 42.4752L15.5801 46.3002H10.5851L10.3151 55.3902C10.3151 56.2602 10.4651 56.8752 10.7651 57.2352C11.0951 57.5652 11.6501 57.7302 12.4301 57.7302Z" fill="#1A5183"/>
<path d="M18.8346 54.3552L18.6096 42.3402L25.6746 41.8002L25.3596 53.6352L25.6296 62.9502H18.5196L18.8346 54.3552ZM22.2546 31.0902C23.3646 31.0902 24.2196 31.4052 24.8196 32.0352C25.4496 32.6652 25.7646 33.5352 25.7646 34.6452C25.7646 35.8452 25.4196 36.8052 24.7296 37.5252C24.0396 38.2152 23.1246 38.5602 21.9846 38.5602C20.8446 38.5602 19.9746 38.2452 19.3746 37.6152C18.7746 36.9852 18.4746 36.1002 18.4746 34.9602C18.4746 33.7902 18.8046 32.8602 19.4646 32.1702C20.1546 31.4502 21.0846 31.0902 22.2546 31.0902Z" fill="#1A5183"/>
<path d="M55.5614 50.3502C55.6214 48.2802 54.7814 47.2452 53.0414 47.2452C51.9914 47.2452 50.8664 47.6802 49.6664 48.5502L49.5314 53.6352L49.8464 62.9502H42.7814L43.1414 50.3502C43.2014 48.2802 42.3464 47.2452 40.5764 47.2452C39.5564 47.2452 38.4164 47.7102 37.1564 48.6402V53.6352L37.4714 62.9502H30.4064L30.7214 54.3552L30.4514 42.3402L37.1564 41.8002V44.9052H37.4714C39.1214 43.3452 40.9064 42.2502 42.8264 41.6202C44.5064 41.6202 45.8864 41.9202 46.9664 42.5202C48.0764 43.0902 48.8414 43.9152 49.2614 44.9952H49.5314C51.1814 43.4352 53.1014 42.3102 55.2914 41.6202C57.5414 41.6202 59.2514 42.1452 60.4214 43.1952C61.6214 44.2152 62.1914 45.6852 62.1314 47.6052L61.9964 53.6352L62.2664 62.9502H55.2014L55.5614 50.3502Z" fill="#1A5183"/>
<path d="M83.5621 53.5902L71.7721 53.6802C71.9821 55.2402 72.5221 56.3952 73.3921 57.1452C74.2621 57.8952 75.4921 58.2702 77.0821 58.2702C78.6721 58.2702 80.7721 57.8052 83.3821 56.8752L83.9221 57.2352L82.8421 62.3202C80.4421 63.0702 78.2671 63.4452 76.3171 63.4452C72.8671 63.4452 70.1521 62.4702 68.1721 60.5202C66.2221 58.5702 65.2471 55.8852 65.2471 52.4652C65.2471 49.0452 66.1921 46.3602 68.0821 44.4102C69.9721 42.4302 72.5371 41.4402 75.7771 41.4402C78.5671 41.4402 80.7271 42.1902 82.2571 43.6902C83.8171 45.1902 84.5971 47.2752 84.5971 49.9452C84.5971 50.8152 84.5071 51.7302 84.3271 52.6902L83.5621 53.5902ZM78.4321 49.1802C78.4321 47.1102 77.5321 46.0752 75.7321 46.0752C74.7121 46.0752 73.8721 46.4202 73.2121 47.1102C72.5521 47.7702 72.1021 48.7302 71.8621 49.9902L78.3421 49.8102L78.4321 49.1802Z" fill="#1A5183"/>
<path d="M89.1974 32.7102C93.3074 32.9202 96.4724 33.6552 98.6924 34.9152C100.912 36.1752 102.022 37.9002 102.022 40.0902C102.022 41.3202 101.647 42.4902 100.897 43.6002C100.177 44.7102 99.1274 45.6402 97.7474 46.3902L94.7774 48.1002L94.6874 48.3252L94.9574 51.8802L90.0074 52.6002L89.5124 52.1052L88.9724 46.6152L89.2424 46.1202L93.2024 44.3202C94.7624 43.5102 95.5424 42.4602 95.5424 41.1702C95.5424 40.1202 94.9424 39.3252 93.7424 38.7852C92.5724 38.2152 90.5774 37.8402 87.7574 37.6602L87.2174 37.0302L88.5224 33.0702L89.1974 32.7102ZM92.7524 55.8402C93.8624 55.8402 94.7174 56.1552 95.3174 56.7852C95.9474 57.4152 96.2624 58.2852 96.2624 59.3952C96.2624 60.5952 95.9174 61.5552 95.2274 62.2752C94.5374 62.9652 93.6224 63.3102 92.4824 63.3102C91.3424 63.3102 90.4724 62.9952 89.8724 62.3652C89.2724 61.7352 88.9724 60.8502 88.9724 59.7102C88.9724 58.5402 89.3024 57.6102 89.9624 56.9202C90.6524 56.2002 91.5824 55.8402 92.7524 55.8402Z" fill="#1A5183"/>
</svg>
